<svg width="150" height="150" viewBox="0 0 150 150" fill="none" xmlns="http://www.w3.org/2000/svg">
<g clip-path="url(#clip0_131_2415)">
<path d="M74.9993 11.9907C40.2011 11.9907 11.9902 40.2019 11.9902 75.0007C11.9902 109.798 40.2008 138.009 74.9993 138.009C109.798 138.009 138.008 109.798 138.008 75.0007C138.008 40.2019 109.798 11.9907 74.9993 11.9907Z" fill="#EEFDF0"/>
<path d="M74.9997 0.292969C33.806 0.292969 0.292969 33.8063 0.292969 75.0006C0.292969 116.194 33.806 149.707 74.9997 149.707C116.193 149.707 149.707 116.194 149.707 75.0006C149.707 33.8063 116.193 0.292969 74.9997 0.292969ZM74.9997 147.314C35.1258 147.314 2.68623 114.874 2.68623 75.0006C2.68623 35.1264 35.1258 2.68623 74.9997 2.68623C114.873 2.68623 147.314 35.1264 147.314 75.0006C147.314 114.874 114.873 147.314 74.9997 147.314Z" fill="#EEFDF0"/>
<path d="M115 75C115 97.0909 97.0909 115 75 115C52.9091 115 35 97.0909 35 75C35 52.9091 52.9091 35 75 35C97.0909 35 115 52.9091 115 75Z" fill="#4FAF5A"/>
<mask id="mask0_131_2415" style="mask-type:alpha" maskUnits="userSpaceOnUse" x="35" y="35" width="80" height="80">
<path d="M115 75C115 97.0909 97.0909 115 75 115C52.9091 115 35 97.0909 35 75C35 52.9091 52.9091 35 75 35C97.0909 35 115 52.9091 115 75Z" fill="#27AE60"/>
</mask>
<g mask="url(#mask0_131_2415)">
<path d="M68 90L67.5 86L77.5 78L94 62L119.5 90L109 99L90 116.5L68 90Z" fill="#4FAF5A"/>
</g>
</g>
<path d="M79.6629 60.0761C80.3113 59.7519 81.0996 60.0147 81.4238 60.663L85.2758 68.3671C87.6438 68.549 89.1297 69.0135 90.0885 70.1994C90.8504 71.1419 91.0971 72.3145 91.0064 73.9375H58.9934C58.9028 72.3145 59.1494 71.1419 59.9114 70.1994C60.8701 69.0135 62.356 68.549 64.7239 68.3671L68.5759 60.663C68.9001 60.0147 69.6885 59.7519 70.3368 60.0761C70.9852 60.4002 71.248 61.1886 70.9238 61.837L67.7127 68.2592C68.5583 68.25 69.481 68.25 70.4883 68.25H79.5116C80.5188 68.25 81.4415 68.25 82.2871 68.2592L79.0759 61.837C78.7518 61.1886 79.0146 60.4002 79.6629 60.0761Z" fill="white"/>
<path fill-rule="evenodd" clip-rule="evenodd" d="M60.2214 80.95C59.8591 79.2595 59.5491 77.8126 59.3289 76.5625H90.671C90.4508 77.8125 90.1408 79.2595 89.7785 80.9499L89.0285 84.45C88.1763 88.427 87.7502 90.4155 86.3063 91.5827C84.8624 92.75 82.8288 92.75 78.7616 92.75H71.2383C67.1711 92.75 65.1374 92.75 63.6936 91.5827C62.2497 90.4155 61.8236 88.427 60.9714 84.4501L60.2214 80.95ZM71.4999 79.1875C70.775 79.1875 70.1874 79.7751 70.1874 80.5C70.1874 81.2249 70.775 81.8125 71.4999 81.8125H78.4999C79.2248 81.8125 79.8124 81.2249 79.8124 80.5C79.8124 79.7751 79.2248 79.1875 78.4999 79.1875H71.4999Z" fill="white"/>
<path d="M79.6629 60.0761C80.3113 59.7519 81.0996 60.0147 81.4238 60.663L85.2758 68.3671C87.6438 68.549 89.1297 69.0135 90.0885 70.1994C90.8504 71.1419 91.0971 72.3145 91.0064 73.9375H58.9934C58.9028 72.3145 59.1494 71.1419 59.9114 70.1994C60.8701 69.0135 62.356 68.549 64.7239 68.3671L68.5759 60.663C68.9001 60.0147 69.6885 59.7519 70.3368 60.0761C70.9852 60.4002 71.248 61.1886 70.9238 61.837L67.7127 68.2592C68.5583 68.25 69.481 68.25 70.4883 68.25H79.5116C80.5188 68.25 81.4415 68.25 82.2871 68.2592L79.0759 61.837C78.7518 61.1886 79.0146 60.4002 79.6629 60.0761Z" stroke="white"/>
<path fill-rule="evenodd" clip-rule="evenodd" d="M60.2214 80.95C59.8591 79.2595 59.5491 77.8126 59.3289 76.5625H90.671C90.4508 77.8125 90.1408 79.2595 89.7785 80.9499L89.0285 84.45C88.1763 88.427 87.7502 90.4155 86.3063 91.5827C84.8624 92.75 82.8288 92.75 78.7616 92.75H71.2383C67.1711 92.75 65.1374 92.75 63.6936 91.5827C62.2497 90.4155 61.8236 88.427 60.9714 84.4501L60.2214 80.95ZM71.4999 79.1875C70.775 79.1875 70.1874 79.7751 70.1874 80.5C70.1874 81.2249 70.775 81.8125 71.4999 81.8125H78.4999C79.2248 81.8125 79.8124 81.2249 79.8124 80.5C79.8124 79.7751 79.2248 79.1875 78.4999 79.1875H71.4999Z" stroke="white"/>
<defs>
<clipPath id="clip0_131_2415">
<rect width="150" height="150" fill="white"/>
</clipPath>
</defs>
</svg>
