<svg width="29" height="26" viewBox="0 0 29 26" fill="none" xmlns="http://www.w3.org/2000/svg">
<path fill-rule="evenodd" clip-rule="evenodd" d="M12.2941 5.18347L12.994 4.41736V9.07947C12.9972 9.7948 13.5782 10.3734 14.2941 10.3734C15.0099 10.3734 15.5909 9.7948 15.5941 9.07947L15.594 4.41736L16.2939 5.13123C16.4117 5.26453 16.5557 5.37195 16.717 5.44714C16.8784 5.52185 17.0532 5.56335 17.231 5.56921C17.5905 5.57947 17.938 5.44031 18.1909 5.18445C18.4365 4.9408 18.5747 4.60876 18.575 4.26257C18.5747 3.91589 18.4364 3.58435 18.1908 3.3407L15.215 0.366577C14.6968 -0.122192 13.8872 -0.122192 13.369 0.366577L10.3931 3.28943C9.86853 3.81384 9.86853 4.66443 10.3932 5.18933C10.9178 5.71374 11.7686 5.71374 12.2931 5.18933L12.2941 5.18347ZM14.2941 12.9764C12.4333 12.9764 10.8319 14.2914 10.4692 16.1161C10.1066 17.9413 11.0836 19.7684 12.8029 20.4799C14.5222 21.1913 16.5046 20.5892 17.538 19.0419C18.5712 17.4945 18.3673 15.4325 17.051 14.1176C16.3212 13.3885 15.332 12.9784 14.3003 12.9769L14.2941 12.9764ZM14.2941 18.1766C13.6738 18.1766 13.1401 17.7382 13.0195 17.1298C12.8988 16.5214 13.2249 15.9125 13.798 15.6757C14.3712 15.4384 15.032 15.6395 15.3762 16.1556C15.7203 16.6713 15.6521 17.3588 15.213 17.7968C14.97 18.0375 14.6421 18.1727 14.3002 18.1727L14.2941 18.1766ZM5.19409 16.8768C5.19385 17.4969 5.63171 18.0311 6.23999 18.1522C6.84814 18.2733 7.4574 17.9481 7.69495 17.3754C7.93262 16.8026 7.7323 16.1415 7.2168 15.7968C6.70117 15.452 6.01392 15.5194 5.5752 15.9579C5.33447 16.2015 5.19958 16.5306 5.19995 16.8729L5.19409 16.8768ZM23.389 16.8768C23.3894 16.2567 22.9515 15.7225 22.3433 15.6014C21.7351 15.4803 21.1259 15.8055 20.8883 16.3783C20.6506 16.951 20.851 17.6122 21.3665 17.9569C21.8821 18.3016 22.5693 18.2343 23.0081 17.7958C23.2543 17.5521 23.3928 17.2196 23.3931 16.8729L23.389 16.8768ZM24.6891 7.78601H19.4891C18.7711 7.78601 18.1891 8.36804 18.1891 9.08582C18.1891 9.80359 18.7711 10.3856 19.4891 10.3856L24.6891 10.3861C25.407 10.3861 25.989 10.9677 25.9891 11.6859V22.0658C25.9891 22.7836 25.4071 23.3656 24.6892 23.3656H3.90015C3.18225 23.3656 2.60022 22.7841 2.6001 22.0658V11.6747C2.6001 10.9569 3.18213 10.3749 3.90002 10.3749H9.1001C9.81812 10.3749 10.4001 9.79285 10.4001 9.07507C10.4001 8.3573 9.81812 7.77527 9.1001 7.77527L3.90015 7.77478C1.74622 7.77478 0.00012207 9.52087 0 11.6747L0.00012207 22.0658C0 24.2191 1.74609 25.9652 3.8999 25.9652L24.6941 25.9657C26.848 25.9652 28.5941 24.2191 28.5942 22.0653L28.5941 11.6747C28.5942 9.52087 26.8481 7.77478 24.6943 7.77478L24.6891 7.78601Z" fill="#1AD598"/>
</svg>
