<svg width="24" height="26" viewBox="0 0 24 26" fill="none" xmlns="http://www.w3.org/2000/svg">
<path fill-rule="evenodd" clip-rule="evenodd" d="M9.09399 7.79297H16.894C17.6121 7.79297 18.1941 7.21094 18.1941 6.49316C18.1941 5.77539 17.6121 5.19336 16.894 5.19336L9.09399 5.19287C8.37598 5.19336 7.79395 5.77539 7.79395 6.49316C7.79395 7.21094 8.37598 7.79297 9.09399 7.79297ZM6.49402 12.9932H16.894C17.6121 12.9932 18.1941 12.4111 18.1941 11.6934C18.1941 10.9756 17.6121 10.3936 16.894 10.3936L6.49402 10.3931C5.776 10.3936 5.19397 10.9756 5.19397 11.6934C5.19397 12.4111 5.776 12.9932 6.49402 12.9932ZM6.49402 18.1934H16.894C17.6121 18.1934 18.1941 17.6113 18.1941 16.8936C18.1941 16.1758 17.6121 15.5938 16.894 15.5938L6.49402 15.5933C5.776 15.5938 5.19397 16.1758 5.19397 16.8936C5.19397 17.6113 5.776 18.1934 6.49402 18.1934ZM22.094 0.00341797H1.30005C0.582153 0.00341797 0.00012207 0.584961 0 1.30322V24.6904C0.000366211 25.1826 0.278442 25.6323 0.718506 25.8525C1.15857 26.0728 1.68518 26.0254 2.0791 25.7305L4.76892 23.7153L7.44592 25.7305C7.9082 26.0771 8.5437 26.0771 9.00598 25.7305L11.6959 23.7153L14.3859 25.7305C14.8481 26.0771 15.4836 26.0771 15.9459 25.7305L18.6229 23.7153L21.3129 25.7305C21.7068 26.0254 22.2334 26.0728 22.6735 25.8525C23.1135 25.6323 23.3915 25.1826 23.3918 24.6904V1.2998C23.3918 0.582031 22.8098 0 22.0919 0L22.094 0.00341797ZM20.7939 22.0903L19.403 21.0513C18.9407 20.7046 18.3052 20.7046 17.8429 21.0513L15.1659 23.0645L12.476 21.0513C12.0137 20.7046 11.3782 20.7046 10.9159 21.0513L8.22595 23.0645L5.54895 21.0513C5.08667 20.7046 4.45117 20.7046 3.98889 21.0513L2.5979 22.0903V2.6001H20.7928L20.7939 22.0903Z" fill="#F9AF1A"/>
</svg>
