<svg width="18" height="18" viewBox="0 0 18 18" fill="none" xmlns="http://www.w3.org/2000/svg">
<path fill-rule="evenodd" clip-rule="evenodd" d="M11.9703 0.343699C10.0166 -0.114566 7.9834 -0.114566 6.02975 0.343699C3.20842 1.00549 1.0055 3.20841 0.3437 6.02975C-0.114567 7.9834 -0.114567 10.0166 0.3437 11.9703C1.0055 14.7916 3.20842 16.9945 6.02975 17.6563C7.9834 18.1146 10.0166 18.1146 11.9703 17.6563C14.7916 16.9945 16.9945 14.7916 17.6563 11.9703C18.1146 10.0166 18.1146 7.9834 17.6563 6.02975C16.9945 3.20842 14.7916 1.00549 11.9703 0.343699ZM5.55377 6.12812C5.55377 5.8109 5.81093 5.55374 6.12815 5.55374H9.95729C10.2745 5.55374 10.5317 5.8109 10.5317 6.12812C10.5317 6.44533 10.2745 6.70249 9.95729 6.70249H6.12815C5.81093 6.70249 5.55377 6.44533 5.55377 6.12812ZM5.55377 8.99997C5.55377 8.68276 5.81093 8.4256 6.12815 8.4256H11.8719C12.1891 8.4256 12.4462 8.68276 12.4462 8.99997C12.4462 9.31719 12.1891 9.57435 11.8719 9.57435H6.12815C5.81093 9.57435 5.55377 9.31719 5.55377 8.99997ZM5.55377 11.8718C5.55377 11.5546 5.81093 11.2975 6.12815 11.2975H9C9.31722 11.2975 9.57438 11.5546 9.57438 11.8718C9.57438 12.189 9.31722 12.4462 9 12.4462H6.12815C5.81093 12.4462 5.55377 12.189 5.55377 11.8718Z" fill="#CBD5E1"/>
</svg>
